<svg width="800" height="800" viewBox="0 0 800 800" fill="none" xmlns="http://www.w3.org/2000/svg">
<path d="M305.496 588.35C297.504 595.81 291.319 600.803 284.999 604.453C254.058 622.317 215.939 622.317 184.999 604.453C173.597 597.87 162.637 586.91 140.718 564.993C118.798 543.073 107.838 532.113 101.256 520.71C83.3923 489.77 83.3923 451.65 101.256 420.71C107.838 409.31 118.798 398.35 140.718 376.43L234.999 282.149C256.918 260.23 267.878 249.27 279.279 242.687C310.22 224.824 348.34 224.824 379.28 242.687C390.68 249.27 401.64 260.23 423.56 282.149C445.48 304.069 456.44 315.029 463.023 326.43C480.887 357.37 480.887 395.49 463.023 426.43C459.373 432.75 454.38 438.937 446.917 446.927M353.063 353.073C345.6 361.063 340.607 367.25 336.957 373.57C319.095 404.51 319.095 442.63 336.957 473.57C343.54 484.973 354.5 495.933 376.42 517.85C398.34 539.77 409.3 550.73 420.7 557.313C451.64 575.177 489.76 575.177 520.7 557.313C532.103 550.73 543.063 539.77 564.983 517.85L659.263 423.57C681.183 401.65 692.143 390.69 698.723 379.29C716.587 348.35 716.587 310.23 698.723 279.29C692.143 267.888 681.183 256.928 659.263 235.009C637.343 213.089 626.383 202.129 614.983 195.547C584.04 177.683 545.923 177.683 514.983 195.547C508.66 199.196 502.477 204.19 494.483 211.652" stroke="#7E7E7E" stroke-width="66.6667" stroke-linecap="round"/>
</svg>
