<svg width="800" height="800" viewBox="0 0 800 800" fill="none" xmlns="http://www.w3.org/2000/svg">
<path d="M171.214 425.467L271.819 302.888C282.085 289.688 287.218 283.088 289.909 275.686C292.289 269.136 293.274 262.161 292.8 255.208C292.264 247.351 289.159 239.588 282.949 224.061L259.259 164.837C250.068 141.86 245.472 130.371 237.545 122.841C230.559 116.205 221.806 111.729 212.336 109.951C201.59 107.933 189.586 110.935 165.578 116.937L100 133.333C100 466.667 333.323 700 666.667 700L683.053 634.413C689.057 610.403 692.057 598.4 690.04 587.653C688.26 578.187 683.787 569.43 677.15 562.447C669.62 554.517 658.13 549.923 635.153 540.733L582.303 519.59C564.59 512.507 555.733 508.963 546.903 508.693C539.097 508.453 531.347 510.043 524.267 513.337C516.257 517.067 509.513 523.81 496.023 537.3L394.247 639.11M433.323 233.333C465.883 239.686 495.803 255.609 519.26 279.065C542.717 302.52 558.64 332.442 564.99 365M433.323 100C500.967 107.515 564.043 137.806 612.2 185.9C660.353 233.995 690.723 297.034 698.323 364.667" stroke="white" stroke-width="66.6667" stroke-linecap="round" stroke-linejoin="round"/>
</svg>
