<svg width="800" height="800" viewBox="0 0 800 800" fill="none" xmlns="http://www.w3.org/2000/svg">
<path d="M399.667 66.6667C215.667 66.6667 66.6667 216 66.6667 400C66.6667 584 215.667 733.333 399.667 733.333C584 733.333 733.333 584 733.333 400C733.333 216 584 66.6667 399.667 66.6667ZM630.667 266.667H532.333C521.667 225 506.333 185 486.333 148C547.667 169 598.667 211.667 630.667 266.667ZM400 134.667C427.667 174.667 449.333 219 463.667 266.667H336.333C350.667 219 372.333 174.667 400 134.667ZM142 466.667C136.667 445.333 133.333 423 133.333 400C133.333 377 136.667 354.667 142 333.333H254.667C252 355.333 250 377.333 250 400C250 422.667 252 444.667 254.667 466.667H142ZM169.333 533.333H267.667C278.333 575 293.667 615 313.667 652C252.333 631 201.333 588.667 169.333 533.333ZM267.667 266.667H169.333C201.333 211.333 252.333 169 313.667 148C293.667 185 278.333 225 267.667 266.667ZM400 665.333C372.333 625.333 350.667 581 336.333 533.333H463.667C449.333 581 427.667 625.333 400 665.333ZM478 466.667H322C319 444.667 316.667 422.667 316.667 400C316.667 377.333 319 355 322 333.333H478C481 355 483.333 377.333 483.333 400C483.333 422.667 481 444.667 478 466.667ZM486.333 652C506.333 615 521.667 575 532.333 533.333H630.667C598.667 588.333 547.667 631 486.333 652ZM545.333 466.667C548 444.667 550 422.667 550 400C550 377.333 548 355.333 545.333 333.333H658C663.333 354.667 666.667 377 666.667 400C666.667 423 663.333 445.333 658 466.667H545.333Z" fill="white"/>
</svg>
